<?xml version="1.0" encoding="UTF-8" standalone="no"?>
<!-- Created with Inkscape (http://www.inkscape.org/) -->
<svg xmlns:inkscape="http://www.inkscape.org/namespaces/inkscape" xmlns:rdf="http://www.w3.org/1999/02/22-rdf-syntax-ns#" xmlns="http://www.w3.org/2000/svg" xmlns:cc="http://creativecommons.org/ns#" xmlns:dc="http://purl.org/dc/elements/1.1/" xmlns:sodipodi="http://sodipodi.sourceforge.net/DTD/sodipodi-0.dtd" id="svg2" sodipodi:docname="_svgclean2.svg" viewBox="0 0 937.17 402.68" sodipodi:version="0.32" version="1.0" inkscape:version="0.48.3.1 r9886">
  <defs id="defs4">
    <linearGradient id="linearGradient4904" y2="303.25" gradientUnits="userSpaceOnUse" x2="504.45" y1="152.38" x1="504.85" inkscape:collect="always">
      <stop id="stop4900" style="stop-color:#3131a7" offset="0"/>
      <stop id="stop4902" style="stop-color:#3131a7;stop-opacity:0" offset="1"/>
    </linearGradient>
  </defs>
  <sodipodi:namedview id="base" bordercolor="#666666" inkscape:pageshadow="2" inkscape:window-y="0" pagecolor="#ffffff" inkscape:window-height="645" inkscape:window-maximized="0" inkscape:zoom="1.1673768" inkscape:window-x="0" showgrid="false" borderopacity="1.0" inkscape:current-layer="layer1" inkscape:cx="463.86043" inkscape:cy="-319.63221" inkscape:window-width="674" inkscape:pageopacity="0.0" inkscape:document-units="px"/>
  <g id="layer1" inkscape:label="Calque 1" inkscape:groupmode="layer" transform="translate(-40.69 -62.62)">
    <rect id="rect63524" style="fill:#4848a7" height="44.544" width="181.6" y="320.71" x="602.2"/>
    <path id="path2225" inkscape:connector-curvature="0" sodipodi:nodetypes="czzssccc" style="stroke-linejoin:round;fill-opacity:.98061;color:#000000;stroke:#000000;stroke-linecap:round;stroke-width:0.522;fill:#515251" d="m762.73 398.12s-5.58-36.45 6.5-63.15c12.07-26.7 30.51-45.89 41.79-50.15 10.46-3.95 47.82-13.84 75.22-1.86 14.86 6.5 38.07 33.44 44.57 52.94 8.36 25.07 13 29.71 13 29.71l-94.72 16.72-86.36 15.79z"/>
    <path id="path24953" inkscape:connector-curvature="0" sodipodi:nodetypes="czzssccc" style="stroke-linejoin:round;fill-opacity:.78670;color:#000000;stroke:#000000;stroke-linecap:round;stroke-width:0.522;fill:#151615" d="m286.76 411.9c2.78-36.69-3.24-65.17-10.55-78.93-7.23-13.64-26.94-32.89-38.21-37.15-10.47-3.95-47.09-11.98-75.22-1.85-23.22 8.35-39.01 26-45.51 45.5-8.36 25.07-9.29 58.96-9.29 58.96l85.44 3.26 93.34 10.21z"/>
    <path id="path4850" inkscape:connector-curvature="0" sodipodi:nodetypes="csccssc" style="stroke-linejoin:round;stroke-opacity:.67313;color:#000000;stroke:#000000;stroke-linecap:round;stroke-width:0.3;fill:#e7e7ef" d="m198.6 203.24s68.72-39.93 110.51-61.29 110.51-52.933 110.51-52.933l9.29 6.501s-52 18.572-102.15 48.292-93.8 53.86-110.51 65.93c-16.72 12.08-16.72-6.5-17.65-6.5z"/>
    <path id="path5725" style="opacity:.75136;stroke-linejoin:round;stroke-opacity:.52216;color:#000000;stroke:#000000;stroke-linecap:round;stroke-width:1.1;fill:#e7e7ef" inkscape:connector-curvature="0" d="m58.018 308.97c0.928-21.36 12.072-46.44 12.072-46.44l9.287 7.43-1.858 27.86-19.501 11.15z"/>
    <path id="path19709" inkscape:connector-curvature="0" sodipodi:nodetypes="ccssc" style="stroke-linejoin:round;stroke-opacity:.79917;fill-opacity:.99723;color:#000000;stroke:#020000;stroke-linecap:round;stroke-width:.5;fill:#a01300" d="m912.53 268.11 46.43-0.93s4.64-31.58-1.86-43.65-13-17.64-27.86-13.93c-16.61 4.15-15.79 58.51-16.71 58.51z"/>
    <path id="path14463" inkscape:connector-curvature="0" sodipodi:nodetypes="cccsscccscscsscccczccczcczcsccccscssscscc" style="stroke-linejoin:round;color:#000000;stroke:#000000;stroke-linecap:round;stroke-width:0.622;fill:#4848a7" d="m774.23 334.9s-11.5 27.93-10.58 62.29c-120.72 4.18-479.97 15.79-479.97 15.79s13-62.22-22.29-98.44-99.36-31.58-127.22 0c-27.86 31.57-24.15 64.54-24.15 84.51-12.07 2.32-40.858 6.96-53.86 2.78-14.858-33.89-13.001-64.07-13.001-64.07s-3.714-26.01 6.501-31.58 26.002 0 26.002 0 1.857-21.36 1.857-27.86c0-7.66-10.795-11.14-8.357-14.86 5.223-8.36 5.572-3.71 15.787-9.28 18.611-10.15 44.571-25.08 70.581-36.22 26-11.15 43.64-20.43 43.64-20.43s3.89 1.5 17.42 0.23c11.72 1.51 149.16-81.84 210.57-103.78 0 0.002-12.43-0.958-8.51-6.008 43-20.287 172.8-24.408 194.59-24.984 22.72-0.6 161.39 3.573 245.48 9.672 8.86 12.599 52.62 76.31 68.56 141.02-2.63 14.56-11.92 6.64-12.22 54.65-6.2-0.65 58.73 28.47 61.13 39.8 2.22 10.44-6.41 72.63-37.42 57.45-9.64-60.69-58.38-81.73-58.38-81.73s-24.92-11.04-58.2 2.24c-32.15 12.84-45.35 41.69-47.97 48.68-9.93 0.67-126.09 6.56-132.11 6.75-3.87 0.12-2.94 1.28-24.52-0.57l20.75-258.49-202.13 16.398-167.39 99.602s-12.07 6.5-2.78 17.64c9.28 11.14 33.43 8.36 33.43 8.36s-10.22 35.29-7.43 65.93c2.79 30.65 7.43 52.01 14.86 61.29 7.43 9.29 11.14 26.01 38.07 26.01 20.45 0 248.88-8.36 248.88-8.36s25.08-0.93 33.43-6.5c14.77-9.84 14.86-21.36 14.86-21.36l132.09-6.57z"/>
    <path id="path3100" style="stroke-linejoin:round;stroke-opacity:.90305;color:#000000;stroke:#000000;stroke-linecap:round;stroke-width:.722;fill:#4848a7" inkscape:connector-curvature="0" d="m642.14 341.47s5.59-31.38 6.5-86.37c0.91-54.98-1.52-89.05-2.86-133.57-1.34-44.53-2.5-44.53-16.64-44.728-119.79-1.73-163.48 10.14-195.02 21.359-31.53 11.219-113.04 56.259-129.08 67.789-5.57 19.04-5.57 58.51-5.57 58.51s-9.05 35.2-7.43 65.93c0.93 17.65 3.97 46.94 9.29 57.58 4.64 9.29 16.71 29.72 43.64 29.72 20.45 0 248.88-8.36 248.88-8.36s25.08-0.93 33.43-6.5c14.77-9.84 14.86-21.36 14.86-21.36zm27.86-97.05c0 11.03-8.94 19.97-19.96 19.97s-19.97-8.94-19.97-19.97c0-11.02 8.95-19.96 19.97-19.96s19.96 8.94 19.96 19.96z"/>
    <path id="path3975" inkscape:connector-curvature="0" sodipodi:nodetypes="ccscscc" style="stroke-linejoin:round;color:#000000;stroke:#030000;stroke-linecap:round;stroke-width:0.822;fill:#e7e7ef" d="m319.9 219.82 1.86-50.15s90.08-55.72 136.51-66.87c46.43-11.139 113.76-14.157 155.09-14.854 5.1 0.232 8.8 1.873 10.21 12.074 7.8 56.23 4.64 102.15 4.64 102.15l-308.31 17.65z"/>
    <path id="path7473" inkscape:connector-curvature="0" sodipodi:nodetypes="ccssc" style="stroke-linejoin:round;stroke-opacity:.70222;fill-opacity:.99723;color:#000000;stroke:#000000;stroke-linecap:round;stroke-width:.5;fill:#3a3939" d="m320.83 219.67c-0.13-16.61 0.52-50.96 1.86-65-48.82 20.31-51.78 36.68-55.96 42.25s-6.77 12.21-2.55 18.11c9.29 13 41.09 10.45 56.65 4.64z"/>
    <path id="path8350" inkscape:connector-curvature="0" sodipodi:nodetypes="czszz" style="stroke-linejoin:round;fill-opacity:.99446;color:#000000;stroke:#000000;stroke-linecap:round;stroke-width:0.7;fill:#444444" d="m314.33 209.6c1.39-1.39 2.32-34.36-1.86-37.15-4.65-3.1-27.86 2.79-29.72 18.58-1.85 15.78 8.04 18.6 16.72 20.43 8.82 1.85 13.82-0.82 14.86-1.86z"/>
    <path id="path20584" inkscape:connector-curvature="0" sodipodi:nodetypes="csccssscsc" style="stroke-linejoin:round;color:#000000;stroke:#020000;stroke-linecap:round;stroke-width:0.6;fill:#4848a7" d="m928.17 213.31s-13.93-41.78-30.65-72.43c-16.71-30.65-39-66.864-39-66.864s16.48-1.393 23.22 1.858c15.09 19.966 25.07 33.436 44.57 66.866 20.53 35.18 18.58 35.29 18.58 44.57 0 9.29 0 11.15 3.71 17.65 3.72 6.5 8.36 16.71 8.36 16.71s-6.5-12.07-13.93-12.07-14.86 4.64-14.86 3.71z"/>
    <path id="path24078" inkscape:connector-curvature="0" sodipodi:nodetypes="ccssc" style="stroke-linejoin:round;stroke-opacity:.96537;color:#000000;stroke:#000000;stroke-linecap:round;stroke-width:0.9;fill:#e7e7ef" d="m666.29 200.31c-1.97-25.53-7.43-111.44-7.43-111.44 0 0.005 163.44 0.933 178.3 10.22 14.86 9.29 55.72 72.44 38.08 82.65-17.65 10.22-111.33 13.47-208.95 18.57z"/>
    <path id="path16213" inkscape:connector-curvature="0" sodipodi:nodetypes="ccscscc" style="stroke-linejoin:round;stroke-opacity:.62604;color:#000000;stroke:#030000;stroke-linecap:round;stroke-width:0.6;fill:#2c2c2c" d="m122.1 334.04c-23.686 2.09-79.87 3.72-79.87 3.72s-5.451-28.87 6.501-32.51c10.68-3.25 18.109 1.39 29.369-9.52 15.903-1.62 44.92-0.23 48.64 1.16 7.43 2.79 17.64 10.22 17.64 10.22s-17.18 9.98-22.28 26.93z"/>
    <path id="path17088" inkscape:connector-curvature="0" sodipodi:nodetypes="cccscc" style="stroke-linejoin:round;stroke-opacity:.78116;color:#000000;stroke:#010000;stroke-linecap:round;stroke-width:0.6;fill:#2c2c2c" d="m913.17 309.9c23.22 1.39 46.57-1.86 64.22-1.86 1.86-18.58-12.07-19.5-16.72-41.79-12.07 2.78-37.94 0.87-53.86 2.78-23.22 2.79-27.59 4.65-26 14.86 19.23 13 21.21 12.54 32.36 26.01z"/>
    <path id="path35434" style="stroke-linejoin:round;stroke-opacity:.89474;stroke:#000000;stroke-linecap:round;stroke-width:.59740;fill:#242424" inkscape:connector-curvature="0" d="m276.26 387.44c0 42.81-35.99 77.56-80.34 77.56-44.34 0-80.33-34.75-80.33-77.56 0-42.82 35.99-77.56 80.33-77.56 44.35 0 80.34 34.74 80.34 77.56z"/>
    <path id="path36309" style="stroke-linejoin:round;stroke-opacity:.89412;stroke:#000000;stroke-linecap:round;stroke-width:.59740;fill:#242424" inkscape:connector-curvature="0" d="m930.96 374.44c0 42.81-35.99 77.56-80.33 77.56-44.35 0-80.34-34.75-80.34-77.56 0-42.82 35.99-77.56 80.34-77.56 44.34 0 80.33 34.74 80.33 77.56z"/>
    <path id="path36313" style="stroke-linejoin:round;stroke-opacity:.30194;fill-opacity:.35294;stroke:#000000;stroke-linecap:round;stroke-width:0.622;fill:#dadada" inkscape:connector-curvature="0" d="m250.25 389.3c0 29.98-24.34 54.32-54.33 54.32-29.98 0-54.32-24.34-54.32-54.32 0-29.99 24.34-54.33 54.32-54.33 29.99 0 54.33 24.34 54.33 54.33zm-18.8 30.55c26.48-31.68-72.94 20.3-31.82 16.63s-65.93-37.21-34.26-10.73c31.68 26.48-20.31-72.94-16.63-31.82 3.67 41.13 37.21-65.93 10.73-34.26-26.48 31.68 72.94-20.3 31.82-16.63-41.13 3.67 65.93 37.22 34.26 10.73-31.68-26.48 20.3 72.94 16.63 31.82-3.67-41.13-37.22 65.93-10.73 34.26z"/>
    <path id="path43309" style="stroke-linejoin:round;stroke-opacity:.30194;fill-opacity:.35294;stroke:#000000;stroke-linecap:round;stroke-width:0.622;fill:#dadada" inkscape:connector-curvature="0" d="m904.02 375.37c0 29.98-24.33 54.32-54.32 54.32s-54.33-24.34-54.33-54.32c0-29.99 24.34-54.33 54.33-54.33s54.32 24.34 54.32 54.33zm-18.8 30.55c26.48-31.68-72.94 20.3-31.81 16.63 41.12-3.67-65.94-37.21-34.26-10.73 31.67 26.48-20.31-72.94-16.64-31.82 3.67 41.13 37.22-65.93 10.74-34.26-26.49 31.68 72.94-20.3 31.81-16.63-41.12 3.67 65.94 37.22 34.26 10.73-31.67-26.48 20.31 72.94 16.64 31.82-3.68-41.13-37.22 65.93-10.74 34.26z"/>
    <path id="rect4023" style="fill:url(#linearGradient4904)" d="m66.355 291.17 837.52-15.32v20.56h-837.78l0.255-5.24z" sodipodi:nodetypes="ccccc" inkscape:connector-curvature="0" transform="rotate(-2.4629)"/>
  </g>
  <metadata id="metadata29">
    <rdf:RDF>
      <cc:Work>
        <dc:format>image/svg+xml</dc:format>
        <dc:type rdf:resource="http://purl.org/dc/dcmitype/StillImage"/>
        <cc:license rdf:resource="http://creativecommons.org/licenses/publicdomain/"/>
        <dc:publisher>
          <cc:Agent rdf:about="http://openclipart.org/">
            <dc:title>Openclipart</dc:title>
          </cc:Agent>
        </dc:publisher>
      </cc:Work>
      <cc:License rdf:about="http://creativecommons.org/licenses/publicdomain/">
        <cc:permits rdf:resource="http://creativecommons.org/ns#Reproduction"/>
        <cc:permits rdf:resource="http://creativecommons.org/ns#Distribution"/>
        <cc:permits rdf:resource="http://creativecommons.org/ns#DerivativeWorks"/>
      </cc:License>
    </rdf:RDF>
  </metadata>
</svg>